<mxfile host="app.diagrams.net" agent="Mozilla/5.0 (Windows NT 10.0; Win64; x64) AppleWebKit/537.36 (KHTML, like Gecko) Chrome/126.0.0.0 YaBrowser/24.7.0.0 Safari/537.36" version="24.7.16">
  <diagram name="Страница — 1" id="bSJZbhXd8VlQ9XZKoLv6">
    <mxGraphModel dx="1050" dy="663" grid="1" gridSize="10" guides="1" tooltips="1" connect="1" arrows="1" fold="1" page="1" pageScale="1" pageWidth="827" pageHeight="1169" math="0" shadow="0">
      <root>
        <mxCell id="0" />
        <mxCell id="1" parent="0" />
        <mxCell id="CBX8Peww-ikw76v_2hch-1" value="Item&lt;div&gt;&lt;br&gt;&lt;/div&gt;" style="swimlane;fontStyle=1;align=center;verticalAlign=top;childLayout=stackLayout;horizontal=1;startSize=26;horizontalStack=0;resizeParent=1;resizeParentMax=0;resizeLast=0;collapsible=1;marginBottom=0;whiteSpace=wrap;html=1;" parent="1" vertex="1">
          <mxGeometry x="70" y="60" width="160" height="260" as="geometry">
            <mxRectangle x="70" y="60" width="60" height="40" as="alternateBounds" />
          </mxGeometry>
        </mxCell>
        <mxCell id="CBX8Peww-ikw76v_2hch-2" value="- _id: int&lt;div&gt;- _name: string&lt;/div&gt;&lt;div&gt;- _info: string&lt;/div&gt;&lt;div&gt;- _ cost: double&lt;/div&gt;&lt;div&gt;- _&lt;u&gt;allItemCount&lt;/u&gt;&lt;/div&gt;" style="text;strokeColor=none;fillColor=none;align=left;verticalAlign=top;spacingLeft=4;spacingRight=4;overflow=hidden;rotatable=0;points=[[0,0.5],[1,0.5]];portConstraint=eastwest;whiteSpace=wrap;html=1;" parent="CBX8Peww-ikw76v_2hch-1" vertex="1">
          <mxGeometry y="26" width="160" height="74" as="geometry" />
        </mxCell>
        <mxCell id="CBX8Peww-ikw76v_2hch-3" value="" style="line;strokeWidth=1;fillColor=none;align=left;verticalAlign=middle;spacingTop=-1;spacingLeft=3;spacingRight=3;rotatable=0;labelPosition=right;points=[];portConstraint=eastwest;strokeColor=inherit;" parent="CBX8Peww-ikw76v_2hch-1" vertex="1">
          <mxGeometry y="100" width="160" height="10" as="geometry" />
        </mxCell>
        <mxCell id="CBX8Peww-ikw76v_2hch-4" value="+ Id {get;}: int&lt;div&gt;+ Name {get;set;}: string&lt;/div&gt;&lt;div&gt;+ Info {get;set;}: string&lt;/div&gt;&lt;div&gt;+ Cost {get;set;}: double&lt;/div&gt;&lt;div&gt;+ Item(name: string,info: string, cost: double)&lt;/div&gt;&lt;div&gt;+ ToString(): string&lt;/div&gt;" style="text;strokeColor=none;fillColor=none;align=left;verticalAlign=top;spacingLeft=4;spacingRight=4;overflow=hidden;rotatable=0;points=[[0,0.5],[1,0.5]];portConstraint=eastwest;whiteSpace=wrap;html=1;" parent="CBX8Peww-ikw76v_2hch-1" vertex="1">
          <mxGeometry y="110" width="160" height="150" as="geometry" />
        </mxCell>
        <mxCell id="CBX8Peww-ikw76v_2hch-14" value="Customer" style="swimlane;fontStyle=1;align=center;verticalAlign=top;childLayout=stackLayout;horizontal=1;startSize=26;horizontalStack=0;resizeParent=1;resizeParentMax=0;resizeLast=0;collapsible=1;marginBottom=0;whiteSpace=wrap;html=1;" parent="1" vertex="1">
          <mxGeometry x="400" y="60" width="160" height="260" as="geometry" />
        </mxCell>
        <mxCell id="CBX8Peww-ikw76v_2hch-15" value="- _id: int&lt;div&gt;- _fullname: string&lt;/div&gt;&lt;div&gt;- _address: string&lt;/div&gt;&lt;div&gt;- _&lt;u&gt;allCustomersCount&lt;/u&gt;&lt;br&gt;&lt;/div&gt;" style="text;strokeColor=none;fillColor=none;align=left;verticalAlign=top;spacingLeft=4;spacingRight=4;overflow=hidden;rotatable=0;points=[[0,0.5],[1,0.5]];portConstraint=eastwest;whiteSpace=wrap;html=1;" parent="CBX8Peww-ikw76v_2hch-14" vertex="1">
          <mxGeometry y="26" width="160" height="64" as="geometry" />
        </mxCell>
        <mxCell id="CBX8Peww-ikw76v_2hch-16" value="" style="line;strokeWidth=1;fillColor=none;align=left;verticalAlign=middle;spacingTop=-1;spacingLeft=3;spacingRight=3;rotatable=0;labelPosition=right;points=[];portConstraint=eastwest;strokeColor=inherit;" parent="CBX8Peww-ikw76v_2hch-14" vertex="1">
          <mxGeometry y="90" width="160" height="8" as="geometry" />
        </mxCell>
        <mxCell id="CBX8Peww-ikw76v_2hch-17" value="+ Id {get;}: int&lt;div&gt;+ FullName {get;set;}: string&lt;/div&gt;&lt;div&gt;+ Address {get;set;}: string&lt;/div&gt;&lt;div&gt;+ Customer(fullname: string, address: string)&lt;/div&gt;&lt;div&gt;+ ToString(): string&lt;/div&gt;" style="text;strokeColor=none;fillColor=none;align=left;verticalAlign=top;spacingLeft=4;spacingRight=4;overflow=hidden;rotatable=0;points=[[0,0.5],[1,0.5]];portConstraint=eastwest;whiteSpace=wrap;html=1;" parent="CBX8Peww-ikw76v_2hch-14" vertex="1">
          <mxGeometry y="98" width="160" height="162" as="geometry" />
        </mxCell>
        <mxCell id="CBX8Peww-ikw76v_2hch-33" value="ValueValidator" style="swimlane;fontStyle=0;childLayout=stackLayout;horizontal=1;startSize=26;fillColor=none;horizontalStack=0;resizeParent=1;resizeParentMax=0;resizeLast=0;collapsible=1;marginBottom=0;whiteSpace=wrap;html=1;" parent="1" vertex="1">
          <mxGeometry x="100" y="430" width="420" height="80" as="geometry" />
        </mxCell>
        <mxCell id="CBX8Peww-ikw76v_2hch-37" value="" style="endArrow=none;html=1;rounded=0;" parent="CBX8Peww-ikw76v_2hch-33" edge="1">
          <mxGeometry width="50" height="50" relative="1" as="geometry">
            <mxPoint x="10" y="52.5" as="sourcePoint" />
            <mxPoint x="400" y="52.5" as="targetPoint" />
          </mxGeometry>
        </mxCell>
        <mxCell id="CBX8Peww-ikw76v_2hch-34" value="&lt;u&gt;+ AssertStringOnLength(value: string, maxLength: int, propertyName: string)&lt;/u&gt;" style="text;strokeColor=none;fillColor=none;align=left;verticalAlign=top;spacingLeft=4;spacingRight=4;overflow=hidden;rotatable=0;points=[[0,0.5],[1,0.5]];portConstraint=eastwest;whiteSpace=wrap;html=1;" parent="CBX8Peww-ikw76v_2hch-33" vertex="1">
          <mxGeometry y="26" width="420" height="54" as="geometry" />
        </mxCell>
        <mxCell id="CBX8Peww-ikw76v_2hch-41" value="" style="endArrow=classic;html=1;rounded=0;entryX=0.355;entryY=-0.012;entryDx=0;entryDy=0;entryPerimeter=0;exitX=0.48;exitY=1.011;exitDx=0;exitDy=0;exitPerimeter=0;dashed=1;dashPattern=8 8;" parent="1" target="CBX8Peww-ikw76v_2hch-33" edge="1" source="CBX8Peww-ikw76v_2hch-4">
          <mxGeometry width="50" height="50" relative="1" as="geometry">
            <mxPoint x="280" y="250" as="sourcePoint" />
            <mxPoint x="330" y="190" as="targetPoint" />
            <Array as="points" />
          </mxGeometry>
        </mxCell>
        <mxCell id="CBX8Peww-ikw76v_2hch-43" value="Use&lt;div&gt;&lt;br&gt;&lt;/div&gt;" style="text;whiteSpace=wrap;html=1;" parent="1" vertex="1">
          <mxGeometry x="200" y="350" width="80" height="40" as="geometry" />
        </mxCell>
        <mxCell id="CBX8Peww-ikw76v_2hch-44" value="" style="endArrow=classic;html=1;rounded=0;entryX=0.524;entryY=-0.062;entryDx=0;entryDy=0;entryPerimeter=0;exitX=0.488;exitY=1.002;exitDx=0;exitDy=0;exitPerimeter=0;dashed=1;dashPattern=12 12;" parent="1" edge="1" target="CBX8Peww-ikw76v_2hch-33" source="CBX8Peww-ikw76v_2hch-17">
          <mxGeometry width="50" height="50" relative="1" as="geometry">
            <mxPoint x="480" y="370" as="sourcePoint" />
            <mxPoint x="520" y="420" as="targetPoint" />
          </mxGeometry>
        </mxCell>
        <mxCell id="vVkm3M7Bc62QDpljcO6y-1" value="Use&lt;div&gt;&lt;br&gt;&lt;/div&gt;" style="text;whiteSpace=wrap;html=1;" vertex="1" parent="1">
          <mxGeometry x="370" y="350" width="60" height="40" as="geometry" />
        </mxCell>
      </root>
    </mxGraphModel>
  </diagram>
</mxfile>
